<?xml version="1.0" encoding="utf-8"?>
<!-- Generator: Adobe Illustrator 16.0.0, SVG Export Plug-In . SVG Version: 6.00 Build 0)  -->
<svg version="1.2" baseProfile="tiny" id="Layer_1" xmlns="http://www.w3.org/2000/svg" xmlns:xlink="http://www.w3.org/1999/xlink"
	 x="0px" y="0px" width="40.5px" height="40.5px" viewBox="0 0 40.5 40.5" xml:space="preserve">
<g>
	<circle fill="#011230" cx="20.25" cy="20.25" r="20.25"/>
	<path fill-rule="evenodd" fill="#FFFFFF" d="M22.271,17.971c0-0.097,0-0.18,0-0.261c0-1.886,0-3.772,0-5.658
		c0-0.311,0.013-0.621,0-0.931c-0.016-0.335-0.184-0.597-0.426-0.824c-0.485-0.452-0.961-0.913-1.439-1.371
		c-0.031-0.03-0.049-0.074-0.099-0.15c2.499-0.294,4.96-0.584,7.456-0.879c0,0.094,0,0.167,0,0.24c0,3.73,0.002,7.461,0,11.191
		c-0.003,3.447-0.004,6.895-0.018,10.341c-0.002,0.448,0.137,0.792,0.471,1.094c0.493,0.443,0.956,0.919,1.43,1.384
		c0.037,0.037,0.057,0.092,0.1,0.161c-0.088,0.008-0.135,0.015-0.181,0.015c-2.328,0.001-4.655,0.001-6.984,0
		c-0.304,0-0.309-0.005-0.31-0.315c0-0.795,0-1.589,0-2.384c0-0.074,0-0.148,0-0.223c-0.016-0.006-0.031-0.012-0.048-0.018
		c-0.048,0.086-0.095,0.17-0.14,0.256c-0.533,1.002-1.23,1.852-2.258,2.383c-1.055,0.544-2.186,0.681-3.344,0.518
		c-2.515-0.354-4.093-1.864-5.004-4.157c-0.48-1.207-0.659-2.475-0.711-3.764c-0.065-1.612,0.142-3.185,0.754-4.685
		c0.874-2.141,2.398-3.606,4.632-4.253c1.38-0.399,2.765-0.306,4.094,0.259c0.825,0.351,1.394,0.998,1.833,1.764
		c0.048,0.084,0.094,0.169,0.142,0.252C22.224,17.96,22.232,17.96,22.271,17.971z M22.292,23.621c-0.001,0-0.003,0-0.006,0
		c0-1.596-0.005-3.191,0.005-4.786c0.001-0.268-0.057-0.474-0.261-0.661c-1.129-1.03-2.806-1.005-3.888,0.076
		c-0.556,0.555-0.887,1.242-1.111,1.983c-0.401,1.331-0.491,2.697-0.458,4.076c0.027,1.141,0.121,2.274,0.502,3.363
		c0.229,0.65,0.525,1.268,1.061,1.727c1.221,1.049,2.948,0.857,4.016-0.448c0.091-0.111,0.135-0.292,0.137-0.441
		C22.297,26.881,22.292,25.251,22.292,23.621z"/>
</g>
</svg>
